<?xml version="1.0" standalone="no"?>
<!DOCTYPE svg PUBLIC "-//W3C//DTD SVG 20010904//EN"
 "http://www.w3.org/TR/2001/REC-SVG-20010904/DTD/svg10.dtd">
<svg version="1.0" xmlns="http://www.w3.org/2000/svg"
 width="225.000000pt" height="225.000000pt" viewBox="0 0 225.000000 225.000000"
 preserveAspectRatio="xMidYMid meet">

<g transform="translate(0.000000,225.000000) scale(0.100000,-0.100000)"
fill="#000000" stroke="none">
<path d="M1026 2078 c-146 -17 -318 -73 -439 -144 -67 -39 -197 -132 -197
-141 0 -3 16 -30 35 -58 37 -56 65 -145 65 -205 0 -57 -26 -159 -63 -256 -42
-105 -77 -267 -77 -349 0 -64 22 -157 51 -220 49 -103 144 -177 315 -245 183
-72 261 -116 340 -195 l72 -70 22 33 c38 55 123 126 191 159 35 17 115 45 177
62 176 49 250 93 310 189 45 70 65 151 65 262 0 125 -17 219 -64 363 -48 148
-63 232 -56 318 6 73 30 130 71 168 14 14 26 29 25 35 0 13 -100 96 -163 137
-200 126 -446 183 -680 157z m14 -55 c0 -10 -6 -13 -17 -9 -12 4 -10 0 5 -10
25 -19 30 -62 7 -70 -8 -4 -21 -1 -29 5 -10 8 -16 8 -26 -4 -19 -22 -39 -18
-50 11 -15 39 -12 81 6 88 22 8 44 -11 44 -39 0 -17 7 -24 28 -28 l27 -5 -22
15 c-25 17 -31 59 -10 66 19 6 37 -3 37 -20z m100 8 c0 -11 3 -10 14 5 20 26
49 8 57 -37 l6 -34 2 38 c1 27 5 37 17 37 14 0 16 -7 11 -40 -3 -22 -2 -42 3
-45 9 -5 20 29 20 64 0 20 3 22 27 16 37 -9 36 -7 29 -60 -7 -47 -24 -64 -48
-49 -7 5 -25 7 -40 5 -21 -2 -28 2 -29 16 0 10 -3 13 -6 6 -8 -22 -49 -15 -61
10 l-11 22 0 -22 c-1 -16 -7 -23 -20 -23 -20 0 -31 25 -31 76 0 27 3 31 30 31
20 0 30 -5 30 -16z m-237 -18 c12 -20 19 -103 8 -103 -6 0 -12 8 -12 18 -1 16
-2 16 -6 -1 -3 -10 -10 -16 -16 -14 -13 4 -30 75 -23 94 6 14 42 18 49 6z
m467 -3 c0 -5 7 -7 15 -4 17 7 18 -2 9 -58 -7 -38 -33 -54 -35 -20 0 15 -1 15
-8 -2 -13 -33 -23 0 -15 49 4 28 11 45 20 45 8 0 14 -4 14 -10z m-535 -31 c-4
-11 -2 -19 5 -19 7 0 9 -7 6 -17 -4 -9 -1 -20 6 -25 10 -6 10 -10 -2 -18 -8
-5 -20 -8 -25 -6 -6 2 -19 -2 -30 -10 -31 -23 -42 -17 -59 33 -13 37 -13 48
-4 55 27 17 47 8 58 -28 15 -45 25 -37 12 10 -9 30 -8 37 6 45 22 13 34 4 27
-20z m611 21 c24 -10 25 -12 11 -28 -8 -9 -18 -32 -22 -50 -7 -34 -32 -40 -27
-6 1 10 3 36 4 57 0 20 2 37 4 37 1 0 15 -5 30 -10z m61 -74 l-5 -51 16 43
c17 45 31 51 56 27 13 -14 13 -20 -3 -58 -17 -39 -39 -51 -33 -17 2 12 1 12
-6 2 -10 -14 -62 -7 -62 9 0 5 -7 6 -15 3 -21 -9 -19 19 5 66 15 29 25 38 36
33 13 -5 15 -16 11 -57z m-779 -16 c14 -40 13 -44 -3 -56 -10 -7 -22 -11 -26
-8 -5 3 -9 0 -9 -5 0 -26 -20 -7 -35 33 -18 46 -13 71 10 62 7 -2 16 2 19 10
10 26 29 10 44 -36z m895 14 c9 -10 -35 -94 -50 -94 -17 0 -17 -1 7 54 20 44
30 53 43 40z m-978 -56 c16 -30 17 -39 6 -52 -22 -26 -39 -19 -61 25 -17 32
-19 43 -9 55 19 23 42 12 64 -28z m630 28 c44 -8 110 -24 145 -36 76 -26 239
-106 275 -135 25 -20 25 -20 10 -75 -8 -30 -15 -67 -15 -81 0 -14 -3 -29 -6
-32 -4 -4 -32 16 -62 44 -116 106 -161 128 -182 89 -10 -19 -8 -26 15 -50 24
-25 25 -29 10 -44 -9 -9 -14 -20 -11 -25 3 -5 -2 -19 -13 -32 -17 -22 -21 -22
-62 -10 -24 7 -72 30 -107 51 -105 64 -166 62 -267 -6 -61 -41 -164 -65 -189
-45 -9 8 -13 18 -10 23 3 5 -2 18 -12 29 -17 19 -16 20 10 48 24 25 26 32 17
50 -11 20 -13 20 -48 6 -43 -18 -56 -29 -136 -104 -46 -45 -57 -52 -57 -35 0
12 -9 56 -20 100 l-20 79 22 17 c13 9 61 37 108 61 211 111 408 148 605 113z
m404 -3 c10 -18 -21 -93 -38 -93 -44 0 -51 28 -21 78 22 35 44 41 59 15z
m-1112 -40 c4 -10 13 -24 20 -31 19 -19 16 -40 -7 -52 -26 -14 -33 -9 -55 40
-16 36 -17 43 -4 51 22 14 39 11 46 -8z m1173 -2 c10 -20 -1 -37 -19 -27 -4 3
-6 -5 -4 -17 5 -33 -12 -55 -34 -41 -20 13 -25 50 -6 47 7 -2 10 4 7 12 -7 18
12 45 32 45 7 0 18 -9 24 -19z m-6 -366 c28 -22 29 -24 13 -48 -8 -13 -23 -32
-33 -42 -17 -16 -15 -23 24 -139 44 -130 72 -268 71 -350 -1 -114 -53 -238
-121 -289 -33 -25 -195 -87 -226 -87 -12 0 -23 17 -35 51 -13 36 -23 49 -33
45 -7 -3 -53 -13 -101 -22 -102 -19 -305 -15 -388 9 l-50 13 -21 -55 c-25 -66
-24 -66 -141 -11 -254 119 -313 334 -186 679 39 106 50 151 36 151 -5 0 -16
13 -25 28 -17 28 -17 29 13 51 l31 23 26 -24 c15 -12 29 -25 32 -28 3 -3 18
-15 35 -27 l30 -21 26 31 c24 28 28 30 44 17 28 -23 15 -88 -33 -159 -50 -76
-61 -138 -37 -211 9 -28 28 -63 41 -79 29 -35 44 -73 44 -113 0 -23 -13 -46
-50 -89 -45 -52 -66 -90 -40 -74 5 3 10 1 10 -4 0 -6 17 -11 38 -11 45 0 82
29 82 64 0 22 2 22 53 15 64 -9 81 -15 132 -49 61 -40 91 -50 148 -50 36 0 66
8 97 25 88 49 130 66 167 68 34 2 38 -1 41 -23 6 -43 30 -60 82 -59 27 1 53 4
58 8 7 4 -9 30 -38 65 -37 43 -50 66 -50 89 0 48 18 103 44 134 46 56 58 92
54 164 -3 58 -9 75 -40 121 -38 54 -66 143 -55 172 10 26 35 19 52 -14 l16
-31 37 30 c20 16 48 41 61 55 29 31 29 31 65 1z m-497 -91 c34 -13 41 -20 32
-30 -9 -11 -17 -11 -46 1 -138 58 -289 -46 -305 -210 -2 -23 -9 -31 -27 -33
-23 -4 -24 -2 -18 43 9 60 41 132 75 168 24 25 79 57 122 71 34 11 127 5 167
-10z m-140 -99 c-9 -19 -13 -21 -15 -9 -3 13 12 33 25 34 0 0 -4 -11 -10 -25z
m93 10 c19 -22 8 -25 -12 -3 -10 10 -14 18 -9 18 5 0 14 -7 21 -15z m-43 -17
c-3 -8 -6 -5 -6 6 -1 11 2 17 5 13 3 -3 4 -12 1 -19z m-77 8 c0 -2 -7 -7 -16
-10 -8 -3 -12 -2 -9 4 6 10 25 14 25 6z m168 -32 c-3 -14 -5 -12 -10 9 -3 19
-2 25 4 19 6 -6 8 -18 6 -28z m-64 -8 c14 18 15 18 25 -6 5 -14 10 -18 10 -10
1 8 8 2 16 -14 8 -15 12 -39 9 -52 -8 -32 1 -65 26 -92 17 -17 18 -22 5 -22
-8 0 -15 -9 -15 -21 0 -32 -20 -61 -36 -55 -8 3 -13 2 -10 -2 2 -4 -13 -17
-34 -29 -46 -24 -60 -15 -49 32 l7 30 1 -32 c0 -18 6 -33 11 -33 11 0 11 31 0
75 -5 20 -8 24 -9 10 -1 -15 -3 -17 -10 -6 -14 22 -32 -18 -19 -42 5 -10 7
-22 3 -25 -12 -12 -60 24 -70 53 -5 17 -13 32 -17 36 -4 3 1 23 13 45 13 26
18 49 14 70 -6 33 19 96 28 72 4 -9 6 -7 6 5 1 19 16 23 27 6 4 -8 10 -6 17 6
9 18 10 18 23 0 14 -18 14 -18 28 1z m-364 -91 c0 -43 6 -90 14 -109 14 -33
13 -34 -11 -41 -13 -3 -33 -3 -43 0 -17 5 -17 9 -5 38 7 18 13 65 13 105 1 39
1 74 1 77 1 3 8 5 16 5 12 0 15 -15 15 -75z m714 -38 c9 -38 16 -69 16 -70 0
-1 -12 -3 -26 -4 -24 -1 -26 2 -21 30 l4 31 -28 -34 c-33 -39 -39 -32 -9 10
16 22 18 33 10 61 -14 47 -13 57 8 61 22 5 27 -4 46 -85z m33 71 c2 -16 0 -19
-6 -10 -6 11 -10 10 -15 -4 -3 -9 -9 -14 -12 -11 -6 5 17 47 26 47 3 0 7 -10
7 -22z m-591 -232 c19 -20 32 -41 29 -46 -3 -6 -1 -10 4 -10 6 0 11 5 11 10 0
14 13 12 36 -6 18 -14 18 -15 -3 -4 -14 6 -23 7 -23 1 0 -10 29 -22 45 -18 6
1 9 5 8 8 -1 4 7 5 17 2 11 -3 20 -9 20 -14 0 -6 10 -13 22 -18 l22 -8 -22 -5
c-12 -4 -20 -2 -16 3 3 5 -3 8 -13 7 -25 -4 -153 46 -130 50 9 2 17 8 17 13 0
6 -4 7 -10 4 -5 -3 -10 -1 -10 4 0 6 -10 11 -22 12 -13 0 -17 3 -10 6 6 2 12
9 12 14 0 4 -6 6 -13 3 -8 -3 -20 2 -27 11 -10 12 -10 15 1 15 8 1 3 8 -11 16
-14 8 -17 13 -7 10 25 -8 21 9 -5 23 -13 6 -15 9 -5 7 14 -5 16 -1 12 22 -3
15 4 4 15 -24 11 -28 36 -68 56 -88z m430 108 c-5 -19 -4 -24 6 -19 7 4 5 0
-4 -8 -21 -16 -24 -31 -5 -22 6 4 4 0 -6 -8 -14 -11 -15 -16 -5 -20 7 -3 3 -6
-9 -6 -28 -1 -27 -4 -3 44 11 22 20 45 20 52 0 7 3 13 6 13 3 0 3 -12 0 -26z
m-40 -102 c-15 -3 -16 -6 -5 -13 11 -7 11 -9 -3 -9 -10 0 -18 6 -18 13 0 20
10 26 28 19 15 -6 15 -7 -2 -10z m-32 -49 c-24 -24 -107 -54 -118 -43 -7 7 -6
14 2 22 7 7 12 8 12 3 0 -6 5 -3 11 5 9 12 10 12 5 -4 -5 -14 -2 -17 10 -12 8
3 20 6 25 6 4 0 7 6 5 13 -1 6 -1 9 1 5 10 -17 21 -7 16 15 -4 18 -3 19 6 7 9
-13 11 -13 11 3 0 14 2 15 13 5 12 -10 12 -15 1 -25z m-137 -38 c0 -8 -7 -15
-15 -15 -12 0 -12 3 -2 15 7 8 13 15 15 15 1 0 2 -7 2 -15z m258 -45 c10 -11
16 -20 13 -20 -3 0 -13 9 -23 20 -10 11 -16 20 -13 20 3 0 13 -9 23 -20z
m-682 -35 c-3 -9 -8 -14 -10 -11 -3 3 -2 9 2 15 9 16 15 13 8 -4z m392 -16
c11 19 25 12 25 -14 0 -22 -3 -24 -18 -16 -13 7 -23 6 -32 -2 -9 -8 -11 -9 -6
0 3 6 1 13 -6 15 -7 3 -9 12 -4 24 7 18 8 18 21 1 8 -12 15 -14 20 -8z m52
-26 c-3 -10 -5 -2 -5 17 0 19 2 27 5 18 2 -10 2 -26 0 -35z m-111 12 c1 -14
-2 -25 -7 -25 -5 0 -9 11 -9 25 0 33 15 33 16 0z m439 -15 c-4 -6 -1 -19 6
-28 12 -16 12 -16 -5 0 -16 14 -15 38 0 38 3 0 2 -5 -1 -10z m-512 -206 c8 -9
112 -8 126 0 17 11 51 -13 51 -34 0 -22 -25 -27 -33 -7 -3 7 -6 5 -6 -5 -1
-13 7 -18 24 -18 22 0 25 4 25 35 0 32 3 35 29 35 27 0 30 -4 45 -65 9 -35 16
-67 16 -70 0 -11 -39 -4 -43 8 -3 7 -6 5 -6 -5 -1 -14 -10 -18 -35 -18 -19 0
-41 -3 -49 -6 -8 -3 -21 2 -30 10 -13 14 -16 14 -27 1 -25 -30 -69 -11 -71 29
-1 18 -2 17 -8 -4 -5 -20 -14 -26 -44 -28 -37 -3 -37 -3 -37 35 0 21 3 55 6
76 6 32 10 37 34 37 15 0 30 -3 33 -6z"/>
<path d="M951 1964 c0 -11 3 -14 6 -6 3 7 2 16 -1 19 -3 4 -6 -2 -5 -13z"/>
<path d="M1172 2000 c0 -14 2 -19 5 -12 2 6 2 18 0 25 -3 6 -5 1 -5 -13z"/>
<path d="M1291 1964 c0 -11 3 -14 6 -6 3 7 2 16 -1 19 -3 4 -6 -2 -5 -13z"/>
<path d="M1067 1030 c-4 -15 -10 -19 -19 -14 -7 4 -9 3 -5 -1 22 -25 54 -3 37
24 -5 9 -9 6 -13 -9z"/>
<path d="M1160 969 c0 -5 5 -7 10 -4 6 3 10 8 10 11 0 2 -4 4 -10 4 -5 0 -10
-5 -10 -11z"/>
<path d="M1484 1166 c1 -8 5 -18 8 -22 4 -3 5 1 4 10 -1 8 -5 18 -8 22 -4 3
-5 -1 -4 -10z"/>
<path d="M1505 1091 c-3 -5 -2 -12 3 -15 5 -3 9 1 9 9 0 17 -3 19 -12 6z"/>
<path d="M1210 890 c0 -5 5 -10 11 -10 5 0 7 5 4 10 -3 6 -8 10 -11 10 -2 0
-4 -4 -4 -10z"/>
<path d="M991 514 c0 -11 3 -14 6 -6 3 7 2 16 -1 19 -3 4 -6 -2 -5 -13z"/>
<path d="M1025 491 c-3 -5 -1 -12 5 -16 5 -3 10 1 10 9 0 18 -6 21 -15 7z"/>
<path d="M1161 444 c0 -11 3 -14 6 -6 3 7 2 16 -1 19 -3 4 -6 -2 -5 -13z"/>
<path d="M1199 243 l-24 -28 28 24 c15 14 27 26 27 28 0 8 -8 1 -31 -24z"/>
</g>
</svg>
